<mxfile host="app.diagrams.net" modified="2023-04-14T10:29:35.603Z" agent="Mozilla/5.0 (Windows NT 10.0; Win64; x64) AppleWebKit/537.36 (KHTML, like Gecko) Chrome/112.0.0.0 Safari/537.36 Edg/112.0.1722.39" etag="45aEQWLAeTTKWxvVoN2D" version="21.1.7" type="device">
  <diagram id="C5RBs43oDa-KdzZeNtuy" name="Page-1">
    <mxGraphModel dx="1035" dy="658" grid="1" gridSize="10" guides="1" tooltips="1" connect="1" arrows="1" fold="1" page="1" pageScale="1" pageWidth="827" pageHeight="1169" math="0" shadow="0">
      <root>
        <mxCell id="WIyWlLk6GJQsqaUBKTNV-0" />
        <mxCell id="WIyWlLk6GJQsqaUBKTNV-1" parent="WIyWlLk6GJQsqaUBKTNV-0" />
        <mxCell id="Jw2A35CvgfBH42dZsRUs-4" value="客户" style="swimlane;fontStyle=0;childLayout=stackLayout;horizontal=1;startSize=26;fillColor=none;horizontalStack=0;resizeParent=1;resizeParentMax=0;resizeLast=0;collapsible=1;marginBottom=0;whiteSpace=wrap;html=1;fontSize=11;" vertex="1" parent="WIyWlLk6GJQsqaUBKTNV-1">
          <mxGeometry x="160" y="240" width="100" height="50" as="geometry" />
        </mxCell>
        <mxCell id="Jw2A35CvgfBH42dZsRUs-9" value="铁路管理员" style="swimlane;fontStyle=0;childLayout=stackLayout;horizontal=1;startSize=26;fillColor=none;horizontalStack=0;resizeParent=1;resizeParentMax=0;resizeLast=0;collapsible=1;marginBottom=0;whiteSpace=wrap;html=1;fontSize=11;" vertex="1" parent="WIyWlLk6GJQsqaUBKTNV-1">
          <mxGeometry x="170" y="390" width="100" height="50" as="geometry" />
        </mxCell>
        <mxCell id="Jw2A35CvgfBH42dZsRUs-13" value="Extends" style="endArrow=block;endSize=16;endFill=0;html=1;rounded=0;exitX=0;exitY=0.5;exitDx=0;exitDy=0;entryX=0.5;entryY=0;entryDx=0;entryDy=0;fontSize=11;" edge="1" parent="WIyWlLk6GJQsqaUBKTNV-1" source="Jw2A35CvgfBH42dZsRUs-4" target="Jw2A35CvgfBH42dZsRUs-18">
          <mxGeometry width="160" relative="1" as="geometry">
            <mxPoint x="450" y="452" as="sourcePoint" />
            <mxPoint x="95" y="322" as="targetPoint" />
            <Array as="points" />
          </mxGeometry>
        </mxCell>
        <mxCell id="Jw2A35CvgfBH42dZsRUs-14" value="Extends" style="endArrow=block;endSize=16;endFill=0;html=1;rounded=0;entryX=0.5;entryY=1;entryDx=0;entryDy=0;exitX=0;exitY=0.5;exitDx=0;exitDy=0;fontSize=11;" edge="1" parent="WIyWlLk6GJQsqaUBKTNV-1" source="Jw2A35CvgfBH42dZsRUs-9" target="Jw2A35CvgfBH42dZsRUs-18">
          <mxGeometry width="160" relative="1" as="geometry">
            <mxPoint x="450" y="452" as="sourcePoint" />
            <mxPoint x="95" y="364" as="targetPoint" />
            <Array as="points" />
          </mxGeometry>
        </mxCell>
        <mxCell id="Jw2A35CvgfBH42dZsRUs-18" value="用户" style="swimlane;fontStyle=0;childLayout=stackLayout;horizontal=1;startSize=26;fillColor=none;horizontalStack=0;resizeParent=1;resizeParentMax=0;resizeLast=0;collapsible=1;marginBottom=0;whiteSpace=wrap;html=1;fontSize=11;" vertex="1" parent="WIyWlLk6GJQsqaUBKTNV-1">
          <mxGeometry x="50" y="310" width="100" height="50" as="geometry" />
        </mxCell>
        <mxCell id="Jw2A35CvgfBH42dZsRUs-19" value="个人账户" style="swimlane;fontStyle=0;childLayout=stackLayout;horizontal=1;startSize=26;fillColor=none;horizontalStack=0;resizeParent=1;resizeParentMax=0;resizeLast=0;collapsible=1;marginBottom=0;whiteSpace=wrap;html=1;fontSize=11;" vertex="1" parent="WIyWlLk6GJQsqaUBKTNV-1">
          <mxGeometry x="344" y="270" width="140" height="156" as="geometry" />
        </mxCell>
        <mxCell id="Jw2A35CvgfBH42dZsRUs-20" value="UID" style="text;strokeColor=none;fillColor=none;align=left;verticalAlign=top;spacingLeft=4;spacingRight=4;overflow=hidden;rotatable=0;points=[[0,0.5],[1,0.5]];portConstraint=eastwest;whiteSpace=wrap;html=1;fontStyle=0;fontSize=11;" vertex="1" parent="Jw2A35CvgfBH42dZsRUs-19">
          <mxGeometry y="26" width="140" height="26" as="geometry" />
        </mxCell>
        <mxCell id="Jw2A35CvgfBH42dZsRUs-33" value="账户密码&lt;br style=&quot;font-size: 11px;&quot;&gt;" style="text;strokeColor=none;fillColor=none;align=left;verticalAlign=top;spacingLeft=4;spacingRight=4;overflow=hidden;rotatable=0;points=[[0,0.5],[1,0.5]];portConstraint=eastwest;whiteSpace=wrap;html=1;fontStyle=0;fontSize=11;" vertex="1" parent="Jw2A35CvgfBH42dZsRUs-19">
          <mxGeometry y="52" width="140" height="26" as="geometry" />
        </mxCell>
        <mxCell id="Jw2A35CvgfBH42dZsRUs-34" value="姓名" style="text;strokeColor=none;fillColor=none;align=left;verticalAlign=top;spacingLeft=4;spacingRight=4;overflow=hidden;rotatable=0;points=[[0,0.5],[1,0.5]];portConstraint=eastwest;whiteSpace=wrap;html=1;fontStyle=0;fontSize=11;" vertex="1" parent="Jw2A35CvgfBH42dZsRUs-19">
          <mxGeometry y="78" width="140" height="26" as="geometry" />
        </mxCell>
        <mxCell id="Jw2A35CvgfBH42dZsRUs-35" value="手机号码" style="text;strokeColor=none;fillColor=none;align=left;verticalAlign=top;spacingLeft=4;spacingRight=4;overflow=hidden;rotatable=0;points=[[0,0.5],[1,0.5]];portConstraint=eastwest;whiteSpace=wrap;html=1;fontStyle=0;fontSize=11;" vertex="1" parent="Jw2A35CvgfBH42dZsRUs-19">
          <mxGeometry y="104" width="140" height="26" as="geometry" />
        </mxCell>
        <mxCell id="Jw2A35CvgfBH42dZsRUs-36" value="身份证号码" style="text;strokeColor=none;fillColor=none;align=left;verticalAlign=top;spacingLeft=4;spacingRight=4;overflow=hidden;rotatable=0;points=[[0,0.5],[1,0.5]];portConstraint=eastwest;whiteSpace=wrap;html=1;fontStyle=0;fontSize=11;" vertex="1" parent="Jw2A35CvgfBH42dZsRUs-19">
          <mxGeometry y="130" width="140" height="26" as="geometry" />
        </mxCell>
        <mxCell id="Jw2A35CvgfBH42dZsRUs-38" value="客户账户" style="swimlane;fontStyle=0;childLayout=stackLayout;horizontal=1;startSize=26;fillColor=none;horizontalStack=0;resizeParent=1;resizeParentMax=0;resizeLast=0;collapsible=1;marginBottom=0;whiteSpace=wrap;html=1;rounded=0;swimlaneLine=1;glass=0;points=[[0,0,0,0,0],[0,0.25,0,0,0],[0,0.5,0,0,0],[0,0.75,0,0,0],[0,1,0,0,0],[0.25,0,0,0,0],[0.25,1,0,0,0],[0.5,0,0,0,0],[0.5,1,0,0,0],[0.75,0,0,0,0],[0.75,1,0,0,0],[1,0,0,0,0],[1,0.25,0,0,0],[1,0.5,0,0,0],[1,0.75,0,0,0],[1,1,0,0,0]];fontSize=11;" vertex="1" parent="WIyWlLk6GJQsqaUBKTNV-1">
          <mxGeometry x="484" y="140" width="140" height="52" as="geometry" />
        </mxCell>
        <mxCell id="Jw2A35CvgfBH42dZsRUs-39" value="信用积分" style="text;strokeColor=none;fillColor=none;align=left;verticalAlign=top;spacingLeft=4;spacingRight=4;overflow=hidden;rotatable=0;points=[[0,0.5],[1,0.5]];portConstraint=eastwest;whiteSpace=wrap;html=1;fontSize=11;" vertex="1" parent="Jw2A35CvgfBH42dZsRUs-38">
          <mxGeometry y="26" width="140" height="26" as="geometry" />
        </mxCell>
        <mxCell id="Jw2A35CvgfBH42dZsRUs-43" value="铁路管理员账户" style="swimlane;fontStyle=0;childLayout=stackLayout;horizontal=1;startSize=26;fillColor=none;horizontalStack=0;resizeParent=1;resizeParentMax=0;resizeLast=0;collapsible=1;marginBottom=0;whiteSpace=wrap;html=1;fontSize=11;" vertex="1" parent="WIyWlLk6GJQsqaUBKTNV-1">
          <mxGeometry x="484" y="490" width="140" height="52" as="geometry" />
        </mxCell>
        <mxCell id="Jw2A35CvgfBH42dZsRUs-47" value="Extends" style="endArrow=block;endSize=16;endFill=0;html=1;rounded=0;exitX=0.5;exitY=1;exitDx=0;exitDy=0;exitPerimeter=0;entryX=0.5;entryY=0;entryDx=0;entryDy=0;fontSize=11;" edge="1" parent="WIyWlLk6GJQsqaUBKTNV-1" source="Jw2A35CvgfBH42dZsRUs-38" target="Jw2A35CvgfBH42dZsRUs-19">
          <mxGeometry width="160" relative="1" as="geometry">
            <mxPoint x="620" y="270" as="sourcePoint" />
            <mxPoint x="500" y="280" as="targetPoint" />
            <Array as="points" />
          </mxGeometry>
        </mxCell>
        <mxCell id="Jw2A35CvgfBH42dZsRUs-53" value="车次" style="swimlane;fontStyle=0;childLayout=stackLayout;horizontal=1;startSize=26;fillColor=none;horizontalStack=0;resizeParent=1;resizeParentMax=0;resizeLast=0;collapsible=1;marginBottom=0;whiteSpace=wrap;html=1;fontSize=11;" vertex="1" parent="WIyWlLk6GJQsqaUBKTNV-1">
          <mxGeometry x="730" y="500" width="140" height="104" as="geometry" />
        </mxCell>
        <mxCell id="Jw2A35CvgfBH42dZsRUs-54" value="车辆信息&lt;br style=&quot;font-size: 11px;&quot;&gt;&lt;br style=&quot;font-size: 11px;&quot;&gt;" style="text;strokeColor=none;fillColor=none;align=left;verticalAlign=top;spacingLeft=4;spacingRight=4;overflow=hidden;rotatable=0;points=[[0,0.5],[1,0.5]];portConstraint=eastwest;whiteSpace=wrap;html=1;fontSize=11;" vertex="1" parent="Jw2A35CvgfBH42dZsRUs-53">
          <mxGeometry y="26" width="140" height="26" as="geometry" />
        </mxCell>
        <mxCell id="Jw2A35CvgfBH42dZsRUs-55" value="途径站点" style="text;strokeColor=none;fillColor=none;align=left;verticalAlign=top;spacingLeft=4;spacingRight=4;overflow=hidden;rotatable=0;points=[[0,0.5],[1,0.5]];portConstraint=eastwest;whiteSpace=wrap;html=1;fontSize=11;" vertex="1" parent="Jw2A35CvgfBH42dZsRUs-53">
          <mxGeometry y="52" width="140" height="26" as="geometry" />
        </mxCell>
        <mxCell id="Jw2A35CvgfBH42dZsRUs-56" value="站点时刻" style="text;strokeColor=none;fillColor=none;align=left;verticalAlign=top;spacingLeft=4;spacingRight=4;overflow=hidden;rotatable=0;points=[[0,0.5],[1,0.5]];portConstraint=eastwest;whiteSpace=wrap;html=1;fontSize=11;" vertex="1" parent="Jw2A35CvgfBH42dZsRUs-53">
          <mxGeometry y="78" width="140" height="26" as="geometry" />
        </mxCell>
        <mxCell id="Jw2A35CvgfBH42dZsRUs-57" value="车票" style="swimlane;fontStyle=0;childLayout=stackLayout;horizontal=1;startSize=26;fillColor=none;horizontalStack=0;resizeParent=1;resizeParentMax=0;resizeLast=0;collapsible=1;marginBottom=0;whiteSpace=wrap;html=1;fontSize=11;" vertex="1" parent="WIyWlLk6GJQsqaUBKTNV-1">
          <mxGeometry x="730" y="110" width="140" height="234" as="geometry" />
        </mxCell>
        <mxCell id="Jw2A35CvgfBH42dZsRUs-58" value="出发地" style="text;strokeColor=none;fillColor=none;align=left;verticalAlign=top;spacingLeft=4;spacingRight=4;overflow=hidden;rotatable=0;points=[[0,0.5],[1,0.5]];portConstraint=eastwest;whiteSpace=wrap;html=1;fontSize=11;" vertex="1" parent="Jw2A35CvgfBH42dZsRUs-57">
          <mxGeometry y="26" width="140" height="26" as="geometry" />
        </mxCell>
        <mxCell id="Jw2A35CvgfBH42dZsRUs-59" value="目的地" style="text;strokeColor=none;fillColor=none;align=left;verticalAlign=top;spacingLeft=4;spacingRight=4;overflow=hidden;rotatable=0;points=[[0,0.5],[1,0.5]];portConstraint=eastwest;whiteSpace=wrap;html=1;fontSize=11;" vertex="1" parent="Jw2A35CvgfBH42dZsRUs-57">
          <mxGeometry y="52" width="140" height="26" as="geometry" />
        </mxCell>
        <mxCell id="Jw2A35CvgfBH42dZsRUs-60" value="出发时间&lt;br style=&quot;font-size: 11px;&quot;&gt;" style="text;strokeColor=none;fillColor=none;align=left;verticalAlign=top;spacingLeft=4;spacingRight=4;overflow=hidden;rotatable=0;points=[[0,0.5],[1,0.5]];portConstraint=eastwest;whiteSpace=wrap;html=1;fontSize=11;" vertex="1" parent="Jw2A35CvgfBH42dZsRUs-57">
          <mxGeometry y="78" width="140" height="26" as="geometry" />
        </mxCell>
        <mxCell id="Jw2A35CvgfBH42dZsRUs-62" value="出发时间&lt;br style=&quot;font-size: 11px;&quot;&gt;" style="text;strokeColor=none;fillColor=none;align=left;verticalAlign=top;spacingLeft=4;spacingRight=4;overflow=hidden;rotatable=0;points=[[0,0.5],[1,0.5]];portConstraint=eastwest;whiteSpace=wrap;html=1;fontSize=11;" vertex="1" parent="Jw2A35CvgfBH42dZsRUs-57">
          <mxGeometry y="104" width="140" height="26" as="geometry" />
        </mxCell>
        <mxCell id="Jw2A35CvgfBH42dZsRUs-67" value="到达时间" style="text;strokeColor=none;fillColor=none;align=left;verticalAlign=top;spacingLeft=4;spacingRight=4;overflow=hidden;rotatable=0;points=[[0,0.5],[1,0.5]];portConstraint=eastwest;whiteSpace=wrap;html=1;fontSize=11;" vertex="1" parent="Jw2A35CvgfBH42dZsRUs-57">
          <mxGeometry y="130" width="140" height="26" as="geometry" />
        </mxCell>
        <mxCell id="Jw2A35CvgfBH42dZsRUs-66" value="一二等次" style="text;strokeColor=none;fillColor=none;align=left;verticalAlign=top;spacingLeft=4;spacingRight=4;overflow=hidden;rotatable=0;points=[[0,0.5],[1,0.5]];portConstraint=eastwest;whiteSpace=wrap;html=1;fontSize=11;" vertex="1" parent="Jw2A35CvgfBH42dZsRUs-57">
          <mxGeometry y="156" width="140" height="26" as="geometry" />
        </mxCell>
        <mxCell id="Jw2A35CvgfBH42dZsRUs-65" value="座位" style="text;strokeColor=none;fillColor=none;align=left;verticalAlign=top;spacingLeft=4;spacingRight=4;overflow=hidden;rotatable=0;points=[[0,0.5],[1,0.5]];portConstraint=eastwest;whiteSpace=wrap;html=1;fontSize=11;" vertex="1" parent="Jw2A35CvgfBH42dZsRUs-57">
          <mxGeometry y="182" width="140" height="26" as="geometry" />
        </mxCell>
        <mxCell id="Jw2A35CvgfBH42dZsRUs-64" value="费用" style="text;strokeColor=none;fillColor=none;align=left;verticalAlign=top;spacingLeft=4;spacingRight=4;overflow=hidden;rotatable=0;points=[[0,0.5],[1,0.5]];portConstraint=eastwest;whiteSpace=wrap;html=1;fontSize=11;" vertex="1" parent="Jw2A35CvgfBH42dZsRUs-57">
          <mxGeometry y="208" width="140" height="26" as="geometry" />
        </mxCell>
        <mxCell id="Jw2A35CvgfBH42dZsRUs-80" value="use" style="endArrow=open;endSize=12;dashed=1;html=1;rounded=0;fontSize=11;" edge="1" parent="WIyWlLk6GJQsqaUBKTNV-1">
          <mxGeometry width="160" relative="1" as="geometry">
            <mxPoint x="270" y="660" as="sourcePoint" />
            <mxPoint x="70" y="660" as="targetPoint" />
          </mxGeometry>
        </mxCell>
        <mxCell id="Jw2A35CvgfBH42dZsRUs-81" value="1..*" style="edgeLabel;html=1;align=center;verticalAlign=middle;resizable=0;points=[];fontSize=15;" vertex="1" connectable="0" parent="Jw2A35CvgfBH42dZsRUs-80">
          <mxGeometry x="-0.7" relative="1" as="geometry">
            <mxPoint as="offset" />
          </mxGeometry>
        </mxCell>
        <mxCell id="Jw2A35CvgfBH42dZsRUs-82" value="&amp;nbsp;*&amp;nbsp;" style="edgeLabel;html=1;align=center;verticalAlign=middle;resizable=0;points=[];fontSize=15;" vertex="1" connectable="0" parent="Jw2A35CvgfBH42dZsRUs-80">
          <mxGeometry x="0.7" relative="1" as="geometry">
            <mxPoint as="offset" />
          </mxGeometry>
        </mxCell>
        <mxCell id="Jw2A35CvgfBH42dZsRUs-84" value="管理" style="endArrow=open;endSize=12;dashed=1;html=1;rounded=0;fontSize=11;entryX=0;entryY=0.5;entryDx=0;entryDy=0;exitX=1;exitY=0.5;exitDx=0;exitDy=0;" edge="1" parent="WIyWlLk6GJQsqaUBKTNV-1" source="Jw2A35CvgfBH42dZsRUs-43" target="Jw2A35CvgfBH42dZsRUs-55">
          <mxGeometry width="160" relative="1" as="geometry">
            <mxPoint x="290" y="530" as="sourcePoint" />
            <mxPoint x="90" y="530" as="targetPoint" />
          </mxGeometry>
        </mxCell>
        <mxCell id="Jw2A35CvgfBH42dZsRUs-85" value="1..*" style="edgeLabel;html=1;align=center;verticalAlign=middle;resizable=0;points=[];fontSize=15;" vertex="1" connectable="0" parent="Jw2A35CvgfBH42dZsRUs-84">
          <mxGeometry x="-0.7" relative="1" as="geometry">
            <mxPoint as="offset" />
          </mxGeometry>
        </mxCell>
        <mxCell id="Jw2A35CvgfBH42dZsRUs-86" value="&amp;nbsp;*&amp;nbsp;" style="edgeLabel;html=1;align=center;verticalAlign=middle;resizable=0;points=[];fontSize=15;" vertex="1" connectable="0" parent="Jw2A35CvgfBH42dZsRUs-84">
          <mxGeometry x="0.7" relative="1" as="geometry">
            <mxPoint as="offset" />
          </mxGeometry>
        </mxCell>
        <mxCell id="Jw2A35CvgfBH42dZsRUs-90" value="" style="endArrow=open;html=1;endSize=12;startArrow=diamondThin;startSize=14;startFill=0;align=left;verticalAlign=bottom;rounded=0;elbow=vertical;fontSize=11;" edge="1" parent="WIyWlLk6GJQsqaUBKTNV-1">
          <mxGeometry x="-1" y="3" relative="1" as="geometry">
            <mxPoint x="70" y="700" as="sourcePoint" />
            <mxPoint x="270" y="700" as="targetPoint" />
          </mxGeometry>
        </mxCell>
        <mxCell id="Jw2A35CvgfBH42dZsRUs-91" value="&amp;nbsp;n&amp;nbsp;" style="edgeLabel;html=1;align=center;verticalAlign=middle;resizable=0;points=[];fontSize=15;" vertex="1" connectable="0" parent="Jw2A35CvgfBH42dZsRUs-90">
          <mxGeometry x="-0.7" relative="1" as="geometry">
            <mxPoint as="offset" />
          </mxGeometry>
        </mxCell>
        <mxCell id="Jw2A35CvgfBH42dZsRUs-92" value="&amp;nbsp;m&amp;nbsp;" style="edgeLabel;html=1;align=center;verticalAlign=middle;resizable=0;points=[];fontSize=15;" vertex="1" connectable="0" parent="Jw2A35CvgfBH42dZsRUs-90">
          <mxGeometry x="0.7" relative="1" as="geometry">
            <mxPoint as="offset" />
          </mxGeometry>
        </mxCell>
        <mxCell id="Jw2A35CvgfBH42dZsRUs-93" value="" style="endArrow=open;html=1;endSize=12;startArrow=diamondThin;startSize=14;startFill=0;align=left;verticalAlign=bottom;rounded=0;elbow=vertical;fontSize=11;exitX=0.5;exitY=0;exitDx=0;exitDy=0;" edge="1" parent="WIyWlLk6GJQsqaUBKTNV-1" source="Jw2A35CvgfBH42dZsRUs-53" target="Jw2A35CvgfBH42dZsRUs-64">
          <mxGeometry x="-1" y="3" relative="1" as="geometry">
            <mxPoint x="60" y="980" as="sourcePoint" />
            <mxPoint x="260" y="980" as="targetPoint" />
          </mxGeometry>
        </mxCell>
        <mxCell id="Jw2A35CvgfBH42dZsRUs-94" value="1" style="edgeLabel;html=1;align=center;verticalAlign=middle;resizable=0;points=[];fontSize=15;" vertex="1" connectable="0" parent="Jw2A35CvgfBH42dZsRUs-93">
          <mxGeometry x="-0.6" relative="1" as="geometry">
            <mxPoint as="offset" />
          </mxGeometry>
        </mxCell>
        <mxCell id="Jw2A35CvgfBH42dZsRUs-95" value="*" style="edgeLabel;html=1;align=center;verticalAlign=middle;resizable=0;points=[];fontSize=15;" vertex="1" connectable="0" parent="Jw2A35CvgfBH42dZsRUs-93">
          <mxGeometry x="0.6" relative="1" as="geometry">
            <mxPoint as="offset" />
          </mxGeometry>
        </mxCell>
        <mxCell id="Jw2A35CvgfBH42dZsRUs-99" value="拥有" style="endArrow=open;endSize=12;dashed=1;html=1;rounded=0;fontSize=11;exitX=0.5;exitY=1;exitDx=0;exitDy=0;entryX=0;entryY=0.5;entryDx=0;entryDy=0;" edge="1" parent="WIyWlLk6GJQsqaUBKTNV-1" source="Jw2A35CvgfBH42dZsRUs-9" target="Jw2A35CvgfBH42dZsRUs-43">
          <mxGeometry width="160" relative="1" as="geometry">
            <mxPoint x="290" y="520" as="sourcePoint" />
            <mxPoint x="30" y="600" as="targetPoint" />
          </mxGeometry>
        </mxCell>
        <mxCell id="Jw2A35CvgfBH42dZsRUs-100" value="1" style="edgeLabel;html=1;align=center;verticalAlign=middle;resizable=0;points=[];fontSize=15;" vertex="1" connectable="0" parent="Jw2A35CvgfBH42dZsRUs-99">
          <mxGeometry x="-0.7" relative="1" as="geometry">
            <mxPoint as="offset" />
          </mxGeometry>
        </mxCell>
        <mxCell id="Jw2A35CvgfBH42dZsRUs-101" value="1" style="edgeLabel;html=1;align=center;verticalAlign=middle;resizable=0;points=[];fontSize=15;" vertex="1" connectable="0" parent="Jw2A35CvgfBH42dZsRUs-99">
          <mxGeometry x="0.7" relative="1" as="geometry">
            <mxPoint as="offset" />
          </mxGeometry>
        </mxCell>
        <mxCell id="Jw2A35CvgfBH42dZsRUs-102" value="拥有" style="endArrow=open;endSize=12;dashed=1;html=1;rounded=0;fontSize=11;exitX=1;exitY=0.5;exitDx=0;exitDy=0;entryX=0;entryY=0.5;entryDx=0;entryDy=0;" edge="1" parent="WIyWlLk6GJQsqaUBKTNV-1" source="Jw2A35CvgfBH42dZsRUs-18" target="Jw2A35CvgfBH42dZsRUs-33">
          <mxGeometry width="160" relative="1" as="geometry">
            <mxPoint x="230" y="450" as="sourcePoint" />
            <mxPoint x="430" y="546" as="targetPoint" />
          </mxGeometry>
        </mxCell>
        <mxCell id="Jw2A35CvgfBH42dZsRUs-103" value="1" style="edgeLabel;html=1;align=center;verticalAlign=middle;resizable=0;points=[];fontSize=15;" vertex="1" connectable="0" parent="Jw2A35CvgfBH42dZsRUs-102">
          <mxGeometry x="-0.7" relative="1" as="geometry">
            <mxPoint as="offset" />
          </mxGeometry>
        </mxCell>
        <mxCell id="Jw2A35CvgfBH42dZsRUs-104" value="1" style="edgeLabel;html=1;align=center;verticalAlign=middle;resizable=0;points=[];fontSize=15;" vertex="1" connectable="0" parent="Jw2A35CvgfBH42dZsRUs-102">
          <mxGeometry x="0.7" relative="1" as="geometry">
            <mxPoint as="offset" />
          </mxGeometry>
        </mxCell>
        <mxCell id="Jw2A35CvgfBH42dZsRUs-105" value="拥有" style="endArrow=open;endSize=12;dashed=1;html=1;rounded=0;fontSize=11;exitX=0.5;exitY=0;exitDx=0;exitDy=0;entryX=-0.005;entryY=0.148;entryDx=0;entryDy=0;entryPerimeter=0;" edge="1" parent="WIyWlLk6GJQsqaUBKTNV-1" source="Jw2A35CvgfBH42dZsRUs-4" target="Jw2A35CvgfBH42dZsRUs-39">
          <mxGeometry width="160" relative="1" as="geometry">
            <mxPoint x="160" y="345" as="sourcePoint" />
            <mxPoint x="354" y="355" as="targetPoint" />
          </mxGeometry>
        </mxCell>
        <mxCell id="Jw2A35CvgfBH42dZsRUs-106" value="1" style="edgeLabel;html=1;align=center;verticalAlign=middle;resizable=0;points=[];fontSize=15;" vertex="1" connectable="0" parent="Jw2A35CvgfBH42dZsRUs-105">
          <mxGeometry x="-0.7" relative="1" as="geometry">
            <mxPoint as="offset" />
          </mxGeometry>
        </mxCell>
        <mxCell id="Jw2A35CvgfBH42dZsRUs-107" value="1" style="edgeLabel;html=1;align=center;verticalAlign=middle;resizable=0;points=[];fontSize=15;" vertex="1" connectable="0" parent="Jw2A35CvgfBH42dZsRUs-105">
          <mxGeometry x="0.7" relative="1" as="geometry">
            <mxPoint as="offset" />
          </mxGeometry>
        </mxCell>
        <mxCell id="Jw2A35CvgfBH42dZsRUs-108" value="Extends" style="endArrow=block;endSize=16;endFill=0;html=1;rounded=0;exitX=0.5;exitY=0;exitDx=0;exitDy=0;entryX=0.48;entryY=1.071;entryDx=0;entryDy=0;fontSize=11;entryPerimeter=0;" edge="1" parent="WIyWlLk6GJQsqaUBKTNV-1" source="Jw2A35CvgfBH42dZsRUs-43" target="Jw2A35CvgfBH42dZsRUs-36">
          <mxGeometry width="160" relative="1" as="geometry">
            <mxPoint x="564" y="202" as="sourcePoint" />
            <mxPoint x="424" y="290" as="targetPoint" />
            <Array as="points" />
          </mxGeometry>
        </mxCell>
        <mxCell id="Jw2A35CvgfBH42dZsRUs-109" value="查询和订购" style="endArrow=open;endSize=12;dashed=1;html=1;rounded=0;fontSize=11;entryX=0;entryY=0.5;entryDx=0;entryDy=0;exitX=1;exitY=0.5;exitDx=0;exitDy=0;" edge="1" parent="WIyWlLk6GJQsqaUBKTNV-1" source="Jw2A35CvgfBH42dZsRUs-39" target="Jw2A35CvgfBH42dZsRUs-62">
          <mxGeometry width="160" relative="1" as="geometry">
            <mxPoint x="280" y="670" as="sourcePoint" />
            <mxPoint x="80" y="670" as="targetPoint" />
          </mxGeometry>
        </mxCell>
        <mxCell id="Jw2A35CvgfBH42dZsRUs-110" value="1..*" style="edgeLabel;html=1;align=center;verticalAlign=middle;resizable=0;points=[];fontSize=15;" vertex="1" connectable="0" parent="Jw2A35CvgfBH42dZsRUs-109">
          <mxGeometry x="-0.7" relative="1" as="geometry">
            <mxPoint as="offset" />
          </mxGeometry>
        </mxCell>
        <mxCell id="Jw2A35CvgfBH42dZsRUs-111" value="&amp;nbsp;*&amp;nbsp;" style="edgeLabel;html=1;align=center;verticalAlign=middle;resizable=0;points=[];fontSize=15;" vertex="1" connectable="0" parent="Jw2A35CvgfBH42dZsRUs-109">
          <mxGeometry x="0.7" relative="1" as="geometry">
            <mxPoint as="offset" />
          </mxGeometry>
        </mxCell>
      </root>
    </mxGraphModel>
  </diagram>
</mxfile>
